<svg xmlns="http://www.w3.org/2000/svg" xmlns:xlink="http://www.w3.org/1999/xlink" viewBox="0 0 300 300" id="instagram">
  <defs>
    <linearGradient id="a" x1="24.71" x2="408.02" y1="257.19" y2="-70.74" gradientUnits="userSpaceOnUse">
      <stop offset="0" stop-color="#fcee21"></stop>
      <stop offset=".25" stop-color="red"></stop>
      <stop offset=".5" stop-color="#f0f"></stop>
      <stop offset=".79" stop-color="#00f"></stop>
      <stop offset="1" stop-color="#662d91"></stop>
    </linearGradient>
    <linearGradient xlink:href="#a" id="b" x1="13.72" x2="275.96" y1="312.63" y2="-.1"></linearGradient>
    <linearGradient xlink:href="#a" id="c" x1="13.72" x2="275.96" y1="312.63" y2="-.1"></linearGradient>
    <linearGradient xlink:href="#a" id="d" x1="13.6" x2="275.83" y1="312.52" y2="-.21"></linearGradient>
  </defs>
  <g>
    <circle cx="150" cy="150" r="135" fill="url(#a)"></circle>
    <circle cx="150" cy="150" r="103.09" fill="#fff"></circle>
    <circle cx="150" cy="150" r="91.11" fill="#fff"></circle>
    <path fill="url(#b)" d="M177.12 107.29h-54.23a15.71 15.71 0 0 0-15.7 15.7v54.22a15.72 15.72 0 0 0 15.7 15.71h54.23a15.73 15.73 0 0 0 15.7-15.71V123a15.72 15.72 0 0 0-15.7-15.7Zm-27.12 71a28.19 28.19 0 1 1 28.19-28.19A28.23 28.23 0 0 1 150 178.29Zm29.1-50.55a6.67 6.67 0 1 1 6.67-6.67 6.67 6.67 0 0 1-6.67 6.67Zm0 0"></path>
    <path fill="url(#c)" d="M150 133.83a16.28 16.28 0 1 0 16.28 16.27A16.29 16.29 0 0 0 150 133.83Zm0 0"></path>
    <path fill="url(#d)" d="M150 58.89a91 91 0 1 0 91 91 91 91 0 0 0-91-91Zm54.72 118.32a27.63 27.63 0 0 1-27.6 27.61h-54.23a27.64 27.64 0 0 1-27.61-27.61V123a27.65 27.65 0 0 1 27.61-27.61h54.23a27.64 27.64 0 0 1 27.6 27.61Zm0 0"></path>
  </g>
</svg>
